<svg width="795" height="155" viewBox="0 0 795 155" fill="none" xmlns="http://www.w3.org/2000/svg">
<path d="M247.045 124V30.9091H310.591V49.1818H269.545V68.2727H306.545V86.5909H269.545V124H247.045ZM324.011 124V54.1818H337.602V124H324.011ZM330.875 43.4091C328.511 43.4091 326.481 42.6212 324.784 41.0454C323.117 39.4394 322.284 37.5303 322.284 35.3182C322.284 33.0758 323.117 31.1667 324.784 29.5909C326.481 27.9848 328.511 27.1818 330.875 27.1818C333.239 27.1818 335.254 27.9848 336.92 29.5909C338.617 31.1667 339.466 33.0758 339.466 35.3182C339.466 37.5303 338.617 39.4394 336.92 41.0454C335.254 42.6212 333.239 43.4091 330.875 43.4091ZM369.477 82.5455V124H355.886V54.1818H368.932V65.5455H369.795C371.402 61.8485 373.917 58.8788 377.341 56.6364C380.795 54.3939 385.144 53.2727 390.386 53.2727C395.144 53.2727 399.311 54.2727 402.886 56.2727C406.462 58.2424 409.235 61.1818 411.205 65.0909C413.174 69 414.159 73.8333 414.159 79.5909V124H400.568V81.2273C400.568 76.1667 399.25 72.2121 396.614 69.3636C393.977 66.4848 390.356 65.0455 385.75 65.0455C382.598 65.0455 379.795 65.7273 377.341 67.0909C374.917 68.4545 372.992 70.4545 371.568 73.0909C370.174 75.697 369.477 78.8485 369.477 82.5455ZM484.705 71.2273L472.386 73.4091C471.871 71.8333 471.053 70.3333 469.932 68.9091C468.841 67.4848 467.356 66.3182 465.477 65.4091C463.598 64.5 461.25 64.0455 458.432 64.0455C454.583 64.0455 451.371 64.9091 448.795 66.6364C446.22 68.3333 444.932 70.5303 444.932 73.2273C444.932 75.5606 445.795 77.4394 447.523 78.8636C449.25 80.2879 452.038 81.4545 455.886 82.3636L466.977 84.9091C473.402 86.3939 478.189 88.6818 481.341 91.7727C484.492 94.8636 486.068 98.8788 486.068 103.818C486.068 108 484.856 111.727 482.432 115C480.038 118.242 476.689 120.788 472.386 122.636C468.114 124.485 463.159 125.409 457.523 125.409C449.705 125.409 443.326 123.742 438.386 120.409C433.447 117.045 430.417 112.273 429.295 106.091L442.432 104.091C443.25 107.515 444.932 110.106 447.477 111.864C450.023 113.591 453.341 114.455 457.432 114.455C461.886 114.455 465.447 113.53 468.114 111.682C470.78 109.803 472.114 107.515 472.114 104.818C472.114 102.636 471.295 100.803 469.659 99.3182C468.053 97.8333 465.583 96.7121 462.25 95.9545L450.432 93.3636C443.917 91.8788 439.098 89.5152 435.977 86.2727C432.886 83.0303 431.341 78.9242 431.341 73.9545C431.341 69.8333 432.492 66.2273 434.795 63.1364C437.098 60.0455 440.28 57.6364 444.341 55.9091C448.402 54.1515 453.053 53.2727 458.295 53.2727C465.841 53.2727 471.78 54.9091 476.114 58.1818C480.447 61.4242 483.311 65.7727 484.705 71.2273ZM501.011 124V54.1818H514.602V124H501.011ZM507.875 43.4091C505.511 43.4091 503.481 42.6212 501.784 41.0454C500.117 39.4394 499.284 37.5303 499.284 35.3182C499.284 33.0758 500.117 31.1667 501.784 29.5909C503.481 27.9848 505.511 27.1818 507.875 27.1818C510.239 27.1818 512.254 27.9848 513.92 29.5909C515.617 31.1667 516.466 33.0758 516.466 35.3182C516.466 37.5303 515.617 39.4394 513.92 41.0454C512.254 42.6212 510.239 43.4091 507.875 43.4091ZM562.159 151.636C556.614 151.636 551.841 150.909 547.841 149.455C543.871 148 540.629 146.076 538.114 143.682C535.598 141.288 533.72 138.667 532.477 135.818L544.159 131C544.977 132.333 546.068 133.742 547.432 135.227C548.826 136.742 550.705 138.03 553.068 139.091C555.462 140.152 558.538 140.682 562.295 140.682C567.447 140.682 571.705 139.424 575.068 136.909C578.432 134.424 580.114 130.455 580.114 125V111.273H579.25C578.432 112.758 577.25 114.409 575.705 116.227C574.189 118.045 572.098 119.621 569.432 120.955C566.765 122.288 563.295 122.955 559.023 122.955C553.508 122.955 548.538 121.667 544.114 119.091C539.72 116.485 536.235 112.652 533.659 107.591C531.114 102.5 529.841 96.2424 529.841 88.8182C529.841 81.3939 531.098 75.0303 533.614 69.7273C536.159 64.4242 539.644 60.3636 544.068 57.5455C548.492 54.697 553.508 53.2727 559.114 53.2727C563.447 53.2727 566.947 54 569.614 55.4545C572.28 56.8788 574.356 58.5455 575.841 60.4545C577.356 62.3636 578.523 64.0455 579.341 65.5H580.341V54.1818H593.659V125.545C593.659 131.545 592.265 136.47 589.477 140.318C586.689 144.167 582.917 147.015 578.159 148.864C573.432 150.712 568.098 151.636 562.159 151.636ZM562.023 111.682C565.932 111.682 569.235 110.773 571.932 108.955C574.659 107.106 576.72 104.47 578.114 101.045C579.538 97.5909 580.25 93.4545 580.25 88.6364C580.25 83.9394 579.553 79.803 578.159 76.2273C576.765 72.6515 574.72 69.8636 572.023 67.8636C569.326 65.8333 565.992 64.8182 562.023 64.8182C557.932 64.8182 554.523 65.8788 551.795 68C549.068 70.0909 547.008 72.9394 545.614 76.5455C544.25 80.1515 543.568 84.1818 543.568 88.6364C543.568 93.2121 544.265 97.2273 545.659 100.682C547.053 104.136 549.114 106.833 551.841 108.773C554.598 110.712 557.992 111.682 562.023 111.682ZM625.477 82.5455V124H611.886V30.9091H625.295V65.5455H626.159C627.795 61.7879 630.295 58.803 633.659 56.5909C637.023 54.3788 641.417 53.2727 646.841 53.2727C651.629 53.2727 655.811 54.2576 659.386 56.2273C662.992 58.197 665.78 61.1364 667.75 65.0455C669.75 68.9242 670.75 73.7727 670.75 79.5909V124H657.159V81.2273C657.159 76.1061 655.841 72.1364 653.205 69.3182C650.568 66.4697 646.902 65.0455 642.205 65.0455C638.992 65.0455 636.114 65.7273 633.568 67.0909C631.053 68.4545 629.068 70.4545 627.614 73.0909C626.189 75.697 625.477 78.8485 625.477 82.5455ZM721.477 54.1818V65.0909H683.341V54.1818H721.477ZM693.568 37.4545H707.159V103.5C707.159 106.136 707.553 108.121 708.341 109.455C709.129 110.758 710.144 111.652 711.386 112.136C712.659 112.591 714.038 112.818 715.523 112.818C716.614 112.818 717.568 112.742 718.386 112.591C719.205 112.439 719.841 112.318 720.295 112.227L722.75 123.455C721.962 123.758 720.841 124.061 719.386 124.364C717.932 124.697 716.114 124.879 713.932 124.909C710.356 124.97 707.023 124.333 703.932 123C700.841 121.667 698.341 119.606 696.432 116.818C694.523 114.03 693.568 110.53 693.568 106.318V37.4545ZM787.705 71.2273L775.386 73.4091C774.871 71.8333 774.053 70.3333 772.932 68.9091C771.841 67.4848 770.356 66.3182 768.477 65.4091C766.598 64.5 764.25 64.0455 761.432 64.0455C757.583 64.0455 754.371 64.9091 751.795 66.6364C749.22 68.3333 747.932 70.5303 747.932 73.2273C747.932 75.5606 748.795 77.4394 750.523 78.8636C752.25 80.2879 755.038 81.4545 758.886 82.3636L769.977 84.9091C776.402 86.3939 781.189 88.6818 784.341 91.7727C787.492 94.8636 789.068 98.8788 789.068 103.818C789.068 108 787.856 111.727 785.432 115C783.038 118.242 779.689 120.788 775.386 122.636C771.114 124.485 766.159 125.409 760.523 125.409C752.705 125.409 746.326 123.742 741.386 120.409C736.447 117.045 733.417 112.273 732.295 106.091L745.432 104.091C746.25 107.515 747.932 110.106 750.477 111.864C753.023 113.591 756.341 114.455 760.432 114.455C764.886 114.455 768.447 113.53 771.114 111.682C773.78 109.803 775.114 107.515 775.114 104.818C775.114 102.636 774.295 100.803 772.659 99.3182C771.053 97.8333 768.583 96.7121 765.25 95.9545L753.432 93.3636C746.917 91.8788 742.098 89.5152 738.977 86.2727C735.886 83.0303 734.341 78.9242 734.341 73.9545C734.341 69.8333 735.492 66.2273 737.795 63.1364C740.098 60.0455 743.28 57.6364 747.341 55.9091C751.402 54.1515 756.053 53.2727 761.295 53.2727C768.841 53.2727 774.78 54.9091 779.114 58.1818C783.447 61.4242 786.311 65.7727 787.705 71.2273Z" fill="black"/>
<mask id="path-2-inside-1_136_12" fill="white">
<path fill-rule="evenodd" clip-rule="evenodd" d="M125.5 155C166.645 155 200 121.645 200 80.5C200 39.3548 166.645 6 125.5 6C84.3548 6 51 39.3548 51 80.5C51 121.645 84.3548 155 125.5 155ZM125 130C152.062 130 174 108.062 174 81C174 53.938 152.062 32 125 32C97.938 32 76 53.938 76 81C76 108.062 97.938 130 125 130Z"/>
</mask>
<path fill-rule="evenodd" clip-rule="evenodd" d="M125.5 155C166.645 155 200 121.645 200 80.5C200 39.3548 166.645 6 125.5 6C84.3548 6 51 39.3548 51 80.5C51 121.645 84.3548 155 125.5 155ZM125 130C152.062 130 174 108.062 174 81C174 53.938 152.062 32 125 32C97.938 32 76 53.938 76 81C76 108.062 97.938 130 125 130Z" fill="#33CE7A"/>
<path d="M198 80.5C198 120.541 165.541 153 125.5 153V157C167.75 157 202 122.75 202 80.5H198ZM125.5 8C165.541 8 198 40.4594 198 80.5H202C202 38.2502 167.75 4 125.5 4V8ZM53 80.5C53 40.4594 85.4594 8 125.5 8V4C83.2502 4 49 38.2502 49 80.5H53ZM125.5 153C85.4594 153 53 120.541 53 80.5H49C49 122.75 83.2502 157 125.5 157V153ZM172 81C172 106.957 150.957 128 125 128V132C153.167 132 176 109.167 176 81H172ZM125 34C150.957 34 172 55.0426 172 81H176C176 52.8335 153.167 30 125 30V34ZM78 81C78 55.0426 99.0426 34 125 34V30C96.8335 30 74 52.8335 74 81H78ZM125 128C99.0426 128 78 106.957 78 81H74C74 109.167 96.8335 132 125 132V128Z" fill="#33CE7A" mask="url(#path-2-inside-1_136_12)"/>
<path fill-rule="evenodd" clip-rule="evenodd" d="M74.5 155C115.645 155 149 121.645 149 80.5C149 39.3548 115.645 6 74.5 6C33.3548 6 0 39.3548 0 80.5C0 121.645 33.3548 155 74.5 155ZM74 130C101.062 130 123 108.062 123 81C123 53.938 101.062 32 74 32C46.938 32 25 53.938 25 81C25 108.062 46.938 130 74 130Z" fill="#33CE7A"/>
</svg>
