<svg width="203" height="149" viewBox="0 0 203 149" fill="none" xmlns="http://www.w3.org/2000/svg">
<path fill-rule="evenodd" clip-rule="evenodd" d="M74.5 149C115.645 149 149 115.645 149 74.5C149 33.3548 115.645 0 74.5 0C33.3548 0 0 33.3548 0 74.5C0 115.645 33.3548 149 74.5 149ZM74 124C101.062 124 123 102.062 123 75C123 47.938 101.062 26 74 26C46.938 26 25 47.938 25 75C25 102.062 46.938 124 74 124Z" fill="#33CE7A"/>
<path fill-rule="evenodd" clip-rule="evenodd" d="M128.5 149C169.645 149 203 115.645 203 74.5C203 33.3548 169.645 0 128.5 0C87.3548 0 54 33.3548 54 74.5C54 115.645 87.3548 149 128.5 149ZM128 124C155.062 124 177 102.062 177 75C177 47.938 155.062 26 128 26C100.938 26 79 47.938 79 75C79 102.062 100.938 124 128 124Z" fill="#33CE7A"/>
</svg>
